PathFileType   4   (X/Y/Z)
DataRate	CameraRate	NumFrames	NumMarkers	Units	OrigDataRate	OrigDataStartFrame	OrigNumFrames
120.0	120.0	7	37	mm	120.0	1	97
Frame#	Time	midhip	hip_r	hip_l	knee_r	knee_l	ankle_r	ankle_l	midasis	asis_r	asis_l	psis_r	psis_l	epicondLat_r	epicondLat_l	epicondMed_r	epicondMed_l	malleolusLat_r	malleolusLat_l	malleolusMedv_r	malleolusMedv_l	neck	subclavicle_r	subclavicle_l	sternalnotch	xyphoidprocess	thighwand_r	thighwand_l	upperleg1_r	upperleg1_l	upperleg2_r	upperleg2_l	shankwand_r	shankwand_l	lowerleg1_r	lowerleg1_l	toe_r	toe_l
 	 	X1	Y1	Z1	X2	Y2	Z2	X3	Y3	Z3	X4	Y4	Z4	X5	Y5	Z5	X6	Y6	Z6	X7	Y7	Z7	X8	Y8	Z8	X9	Y9	Z9	X10	Y10	Z10	X11	Y11	Z11	X12	Y12	Z12	X13	Y13	Z13	X14	Y14	Z14	X15	Y15	Z15	X16	Y16	Z16	X17	Y17	Z17	X18	Y18	Z18	X19	Y19	Z19	X20	Y20	Z20	X21	Y21	Z21	X22	Y22	Z22	X23	Y23	Z23	X24	Y24	Z24	X25	Y25	Z25	X26	Y26	Z26	X27	Y27	Z27	X28	Y28	Z28	X29	Y29	Z29	X30	Y30	Z30	X31	Y31	Z31	X32	Y32	Z32	X33	Y33	Z33	X34	Y34	Z34	X35	Y35	Z35	X36	Y36	Z36	X37	Y37	Z37

	1	0.10000	1222.422	795.804	-247.698	1208.202	777.176	-179.503	1190.996	762.773	-329.967	1375.761	436.807	-191.564	1092.402	394.651	-379.843	1370.636	64.662	-201.643	810.141	170.930	-397.920	1289.858	842.761	-268.950	1299.183	853.676	-153.854	1280.533	831.846	-384.047	1098.078	907.933	-218.560	1092.111	898.575	-272.680	1386.209	439.932	-134.598	1100.933	400.104	-436.953	1358.488	433.725	-245.708	1131.431	385.970	-314.343	1362.810	63.708	-162.427	801.135	185.222	-434.178	1379.883	70.868	-235.882	817.201	172.930	-373.476	1174.758	1343.536	-272.753	1298.640	1284.281	-217.398	1302.734	1280.042	-323.323	1297.075	1279.253	-270.139	1338.149	1210.016	-269.321	1455.254	620.403	-220.894	1175.581	528.486	-505.612	1392.836	640.336	-147.329	1125.478	578.021	-440.257	1415.164	554.286	-155.481	1120.421	489.735	-438.092	1367.350	137.334	-91.289	966.521	175.587	-393.006	1366.235	146.602	-133.520	937.725	206.688	-400.806	1470.301	40.501	-170.483	809.036	63.308	-394.071
	2	0.10833	1235.668	796.416	-247.336	1221.752	778.824	-177.280	1205.601	763.511	-327.771	1385.007	436.816	-189.502	1116.959	392.294	-379.866	1371.861	64.527	-201.432	830.163	176.536	-397.597	1303.986	843.929	-266.549	1312.496	855.527	-151.564	1295.475	832.332	-381.534	1111.666	909.212	-219.010	1105.886	899.512	-273.150	1394.071	439.097	-132.260	1126.058	398.119	-436.851	1367.835	434.988	-245.752	1159.562	383.073	-315.279	1363.293	63.578	-162.372	822.073	190.304	-434.271	1380.822	71.081	-235.576	836.094	178.821	-373.194	1189.368	1345.434	-271.518	1312.720	1285.741	-216.884	1316.433	1281.283	-322.749	1311.001	1280.730	-269.341	1351.625	1211.153	-268.764	1468.776	618.871	-214.701	1198.214	528.242	-504.510	1404.791	638.652	-142.452	1145.411	576.202	-439.404	1424.882	552.298	-151.470	1144.631	487.075	-438.123	1368.126	136.547	-90.738	986.613	176.955	-390.402	1366.815	146.470	-132.881	958.259	208.762	-398.088	1470.450	40.125	-170.034	826.082	67.761	-394.980
	3	0.11667	1248.834	797.332	-246.861	1235.075	780.587	-175.277	1219.996	764.574	-325.806	1392.917	436.651	-187.354	1141.824	390.376	-379.789	1373.043	64.480	-201.147	851.029	182.070	-396.458	1317.867	845.374	-264.262	1325.562	857.507	-149.216	1310.171	833.240	-379.308	1124.994	910.601	-219.500	1119.416	900.647	-273.648	1400.689	438.201	-129.898	1151.555	396.544	-436.633	1376.607	435.545	-245.175	1183.328	382.226	-313.825	1363.654	63.540	-162.275	843.811	195.115	-433.576	1380.889	71.760	-235.435	856.967	184.304	-372.164	1202.910	1347.969	-269.992	1326.712	1287.498	-216.261	1330.236	1282.874	-321.867	1324.833	1282.490	-268.701	1365.214	1212.670	-267.958	1481.366	616.755	-208.862	1221.166	528.443	-503.286	1415.285	636.694	-138.119	1165.660	574.340	-439.033	1433.236	550.400	-147.397	1167.624	485.283	-437.386	1368.353	135.915	-90.144	1007.625	178.622	-386.917	1366.405	146.391	-132.186	979.533	210.850	-395.150	1470.493	39.821	-169.585	845.772	72.109	-395.842
	4	0.12500	1261.832	798.525	-246.422	1248.194	782.465	-173.512	1234.192	766.002	-324.097	1399.680	436.383	-185.269	1166.865	388.992	-379.647	1374.142	64.499	-200.827	872.811	187.276	-394.630	1331.514	847.117	-262.100	1338.400	859.613	-146.819	1324.629	834.621	-377.380	1138.092	912.124	-219.968	1132.761	902.007	-274.094	1406.320	437.333	-127.658	1177.290	395.482	-436.332	1386.581	433.941	-242.357	1199.413	381.329	-313.059	1363.948	63.582	-162.159	866.345	199.492	-432.166	1381.005	72.667	-235.242	880.202	188.546	-370.470	1215.955	1350.771	-268.535	1340.975	1289.422	-215.728	1343.901	1285.054	-321.244	1338.566	1284.558	-268.203	1379.049	1214.653	-267.760	1492.944	614.246	-203.645	1244.336	529.145	-501.998	1424.250	634.688	-134.704	1186.924	572.989	-438.715	1441.147	548.641	-142.926	1188.282	485.043	-437.047	1368.301	135.451	-89.569	1029.605	180.515	-382.918	1365.879	146.474	-131.419	1002.009	213.170	-391.813	1470.482	39.554	-169.171	867.939	76.130	-396.565
	5	0.13333	1274.059	799.281	-245.762	1261.116	784.462	-171.991	1248.184	767.818	-322.652	1405.488	436.060	-183.379	1191.986	388.192	-379.443	1375.116	64.546	-200.510	895.567	191.894	-392.267	1344.933	849.168	-260.069	1351.019	861.836	-144.393	1338.847	836.501	-375.745	1150.997	913.803	-220.352	1145.966	903.621	-274.434	1411.218	436.547	-125.664	1203.130	394.996	-435.954	1395.349	432.695	-238.305	1224.267	382.011	-311.294	1364.197	63.664	-162.039	889.684	203.253	-430.166	1382.442	73.434	-234.757	905.015	191.796	-367.988	1228.973	1353.346	-267.265	1354.988	1291.744	-215.342	1356.996	1287.669	-321.142	1352.159	1286.915	-267.809	1392.679	1217.156	-268.044	1503.479	611.519	-199.294	1267.572	530.378	-500.723	1433.328	633.764	-131.383	1209.024	572.668	-437.857	1449.317	547.477	-138.630	1212.103	485.177	-435.814	1368.176	135.141	-89.057	1052.585	182.539	-378.722	1366.310	146.163	-130.428	1025.678	216.382	-387.947	1470.452	39.298	-168.815	892.349	79.664	-397.034
	6	0.14167	1285.844	799.952	-244.771	1273.844	786.580	-170.710	1261.963	770.024	-321.466	1410.505	435.712	-181.778	1217.130	387.975	-379.158	1375.917	64.575	-200.226	919.300	195.687	-389.531	1358.126	851.518	-258.171	1363.427	864.163	-141.969	1352.825	838.873	-374.373	1163.743	915.653	-220.610	1159.055	905.513	-274.646	1415.595	435.872	-124.002	1228.954	395.095	-435.492	1401.164	432.943	-235.679	1247.470	381.805	-311.459	1364.397	63.744	-161.930	913.824	206.229	-427.726	1385.210	73.665	-234.009	930.568	194.506	-365.011	1242.406	1355.941	-266.105	1368.767	1294.503	-215.200	1369.920	1290.583	-320.929	1365.569	1289.497	-267.515	1406.122	1220.039	-268.268	1512.999	608.706	-195.999	1290.675	532.131	-499.542	1442.397	633.513	-128.485	1231.358	573.093	-436.615	1456.689	546.326	-135.582	1235.308	486.070	-435.254	1368.093	134.958	-88.634	1076.561	184.584	-374.580	1367.760	145.295	-129.465	1050.024	219.537	-384.381	1470.429	39.038	-168.530	918.758	82.617	-397.147
	7	0.15000	1298.306	801.727	-244.050	1286.381	788.817	-169.655	1275.517	772.596	-320.525	1414.852	435.363	-180.523	1242.265	388.317	-378.776	1376.507	64.562	-200.005	943.965	198.477	-386.573	1371.096	854.136	-256.411	1375.635	866.574	-139.599	1366.558	841.699	-373.223	1176.371	917.676	-220.718	1172.048	907.686	-274.737	1419.603	435.312	-122.718	1254.663	395.758	-434.944	1405.604	432.766	-234.049	1272.671	381.982	-312.053	1364.520	63.797	-161.851	938.723	208.292	-424.994	1387.364	73.528	-233.389	956.120	196.383	-362.221	1256.059	1358.714	-265.404	1382.709	1297.699	-215.270	1382.792	1293.315	-320.480	1378.794	1292.234	-267.344	1419.560	1223.019	-268.118	1521.581	605.901	-193.858	1313.456	534.361	-498.510	1450.701	632.684	-126.818	1253.114	573.947	-435.480	1463.028	544.772	-133.695	1258.950	487.265	-434.924	1368.085	134.867	-88.300	1101.487	186.541	-370.682	1369.037	144.715	-128.886	1075.001	222.013	-381.425	1470.440	38.781	-168.313	946.909	84.954	-396.825
